<svg xmlns="http://www.w3.org/2000/svg"  viewBox="0 0 64 64" width="64px" height="64px"><path fill="#c2cde7" d="M36,22c6.797-1.523,13.578-7.054,15.901-13.02C52.561,7.285,52.988,6,52.988,6s1,5.291,1,10.311 c0,1.992,0.569,16.799-6.222,25.107L41.988,39c0,0-2,0-5,1c0,1,6,6,6,6S40,49,34,49c-16,0-23.012-8-23.012-8s2-2,3-4 C15,34,12.87,31.908,13,31c0-5-0.012-12-0.012-17c0,0,2.012,9,13.012,9C29,20,36,22,36,22z"/><path fill="#acb7d0" d="M53.988,16.311c0-5.02-1-10.311-1-10.311s-0.428,1.285-1.088,2.98 c-1.109,2.848-3.24,5.592-5.898,7.853c0.247,1.942,0.492,4.489,0.492,6.972c0,1.388,0.274,9.003-1.859,16.303l3.131,1.31 C54.558,33.11,53.988,18.303,53.988,16.311z"/><path fill="#fff" d="M30.5 21A7.5 7.5 0 1 0 30.5 36A7.5 7.5 0 1 0 30.5 21Z"/><path fill="#fff" d="M17.5 23A5.5 5.5 0 1 0 17.5 34A5.5 5.5 0 1 0 17.5 23Z"/><path fill="#8b8e98" d="M32 27A4 4 0 1 0 32 35 4 4 0 1 0 32 27zM19 27A3 3 0 1 0 19 33 3 3 0 1 0 19 27z"/><path fill="#f5c872" d="M37,42c0,0,4.086,3.629,8.601,5.739C50,50,50,50,50,50c-0.965-1.857-0.573-3.582,3-5 c-1.695-1.672-1.033-0.584-5.079-2.474c-2.353-1.1-4.613-1.958-6.552-2.526L37,42z"/><path fill="#fff" d="M53,45c-2.061,1.418-2.81,3.143-3,5l4,1l2-3L53,45z"/><path fill="#8b8e98" d="M12.163 30.959c-2.501-3.481-6.616-4.942-9.191-3.263s-2.636 5.862-.135 9.344c2.501 3.481 6.616 4.942 9.191 3.263C14.603 38.624 14.664 34.44 12.163 30.959zM63 58c-2-2-9-1-9-6 0-2.525 2.343-4 4-4C64 48 63 58 63 58z"/><path fill="none" stroke="#8d6c9f" stroke-linecap="round" stroke-linejoin="round" stroke-miterlimit="10" stroke-width="2" d="M13,25 V15c0,0,5.003,7.858,11.854,8"/><path fill="none" stroke="#8d6c9f" stroke-linecap="round" stroke-miterlimit="10" stroke-width="2" d="M42.998,46.501 C40.05,48.189,36.667,48.932,33,49c-4.619,0.085-9.69-1.115-14.912-3.401c-2.886-1.263-5.957-2.974-7.653-4.34"/><path fill="none" stroke="#8d6c9f" stroke-linecap="round" stroke-linejoin="round" stroke-miterlimit="10" stroke-width="2" d="M35,22.151c6.797-1.523,14.59-6.204,16.912-12.17C52.572,8.285,53,7,53,7s1,5.291,1,10.311c0,1.992,0.569,16.799-6.222,25.107"/><path fill="none" stroke="#8d6c9f" stroke-linecap="round" stroke-miterlimit="10" stroke-width="2" d="M30.5 21A7.5 7.5 0 1 0 30.5 36 7.5 7.5 0 1 0 30.5 21zM12.163 30.959c-2.501-3.481-6.616-4.942-9.191-3.263s-2.636 5.862-.135 9.344c2.501 3.481 6.616 4.942 9.191 3.263C14.603 38.624 14.664 34.44 12.163 30.959z"/><path fill="#8d6c9f" d="M25.927,40c0,0,15.906,0,15.906-1.977c0-1.55-0.906-3.023-0.906-3.023s4.71,2.168,4,5 C44.818,40.434,43,41,42,41s-3,0-3.881,2C32.66,42.647,25.927,40,25.927,40z"/><path fill="none" stroke="#8d6c9f" stroke-linecap="round" stroke-linejoin="round" stroke-miterlimit="10" stroke-width="2" d="M63,58 c-2-2-9-1-9-6c0-2.525,2.343-4,4-4C64,48,63,58,63,58z"/><path fill="none" stroke="#8d6c9f" stroke-linecap="round" stroke-miterlimit="10" stroke-width="2" d="M41.369 40c1.939.568 4.199 1.426 6.552 2.526C51.967 44.416 55.305 46.328 57 48M54 51c0 0-4-1-8.399-3.261C41.086 45.629 37 42 37 42M50 49c0-3 2.592-4 2.592-4M17.5 23A5.5 5.5 0 1 0 17.5 34 5.5 5.5 0 1 0 17.5 23z"/><path fill="#fff" d="M31.5 28A1.5 1.5 0 1 0 31.5 31A1.5 1.5 0 1 0 31.5 28Z"/><path fill="none" stroke="#8d6c9f" stroke-linecap="round" stroke-miterlimit="10" stroke-width="2" d="M32 27A4 4 0 1 0 32 35A4 4 0 1 0 32 27Z"/><path fill="#fff" d="M19 28A1 1 0 1 0 19 30A1 1 0 1 0 19 28Z"/><path fill="none" stroke="#8d6c9f" stroke-linecap="round" stroke-miterlimit="10" stroke-width="2" d="M19 27A3 3 0 1 0 19 33A3 3 0 1 0 19 27Z"/><path fill="#8d6c9f" d="M46.154 27.645c-.099.543.261 1.064.804 1.163l1.968.359c.543.099 1.064-.261 1.163-.804.099-.543-.261-1.064-.804-1.163l-1.968-.359C46.774 26.742 46.253 27.102 46.154 27.645zM46.764 22.998c.004.552.455.997 1.007.993l2-.014c.552-.004.997-.455.993-1.007s-.455-.997-1.007-.993l-2 .014C47.204 21.995 46.76 22.446 46.764 22.998zM45.014 31.79c-.219.507.015 1.096.522 1.314l1.837.792c.507.219 1.096-.015 1.314-.522.219-.507-.015-1.096-.522-1.314l-1.837-.792C45.821 31.049 45.232 31.283 45.014 31.79z"/></svg>